<?xml version="1.0" standalone="no"?>
<!DOCTYPE svg PUBLIC "-//W3C//DTD SVG 20010904//EN"
 "http://www.w3.org/TR/2001/REC-SVG-20010904/DTD/svg10.dtd">
<svg version="1.0" xmlns="http://www.w3.org/2000/svg"
 width="890.000000pt" height="512.000000pt" viewBox="0 0 890.000000 512.000000"
 preserveAspectRatio="xMidYMid meet">

<g transform="translate(0.000000,512.000000) scale(0.100000,-0.100000)"
fill="#000000" stroke="none">
<path d="M5936 4340 c-54 -17 -106 -82 -106 -134 0 -20 -8 -29 -32 -39 -30
-13 -35 -12 -60 9 -34 28 -78 38 -125 29 -28 -5 -61 -31 -145 -113 -61 -59
-116 -119 -124 -134 -22 -43 -18 -110 11 -152 23 -34 24 -39 11 -69 -11 -27
-19 -33 -47 -35 -40 -3 -76 -27 -106 -72 -22 -31 -23 -43 -23 -194 0 -143 2
-165 20 -194 24 -39 75 -72 113 -72 21 0 31 -7 43 -33 15 -32 15 -35 -10 -72
-30 -43 -35 -109 -12 -153 8 -15 61 -72 118 -128 135 -133 184 -149 271 -90
30 21 37 22 64 11 24 -10 31 -21 36 -52 8 -47 37 -87 80 -111 46 -25 327 -24
374 1 43 23 72 63 80 110 5 32 12 42 36 52 28 12 34 11 62 -10 42 -33 93 -40
140 -21 46 19 228 195 250 241 23 50 19 106 -10 150 -23 33 -25 40 -13 71 10
29 17 34 44 34 41 0 95 37 117 80 15 30 17 58 15 197 -3 145 -5 164 -24 190
-22 30 -71 59 -115 67 -17 4 -31 16 -39 35 -11 27 -10 33 9 57 25 32 35 82 26
130 -5 29 -29 60 -108 141 -103 106 -155 143 -201 143 -33 0 -76 -17 -101 -39
-18 -16 -24 -17 -51 -5 -25 11 -32 20 -38 53 -8 52 -56 107 -104 121 -44 12
-285 12 -326 0z m307 -336 c33 -8 84 -28 114 -42 l53 -27 -98 -98 c-94 -93
-100 -97 -126 -87 -15 5 -54 10 -86 10 -32 0 -71 -5 -86 -10 -26 -10 -32 -6
-126 87 l-98 98 47 24 c115 59 281 78 406 45z m-463 -511 c-9 -46 -9 -73 0
-118 l12 -58 -93 -93 c-52 -52 -97 -94 -100 -94 -14 0 -67 148 -79 219 -19
114 2 246 56 352 l23 47 96 -98 96 -98 -11 -59z m866 155 c31 -79 45 -195 34
-280 -9 -77 -43 -183 -68 -216 l-17 -22 -94 94 -94 94 11 58 c9 55 2 158 -13
172 -3 3 38 50 92 104 110 111 104 111 149 -4z m-571 -535 c33 -3 78 0 100 6
l40 11 98 -98 98 -97 -58 -27 c-165 -77 -335 -78 -505 -1 -32 14 -58 28 -58
32 0 3 42 48 93 99 72 73 96 92 112 87 11 -3 47 -9 80 -12z"/>
<path d="M2243 3865 c-121 -33 -238 -124 -296 -232 -57 -107 -57 -88 -57
-1298 0 -674 4 -1134 10 -1170 5 -33 25 -91 44 -130 57 -115 147 -193 275
-237 l66 -23 1985 0 1985 0 59 23 c120 45 220 131 271 232 52 104 55 135 55
783 l0 598 -57 -7 c-47 -6 -67 -14 -103 -45 -25 -21 -71 -49 -102 -63 l-58
-26 0 -529 c0 -291 -3 -537 -6 -546 -5 -13 -136 112 -560 536 l-554 554 97 97
98 98 -113 113 -112 112 -438 -438 c-382 -382 -441 -437 -467 -437 -26 0 -134
104 -900 870 l-870 870 1218 0 1217 0 0 24 c0 55 42 157 91 221 l50 65 -1388
-1 c-1161 0 -1397 -3 -1440 -14z m535 -2132 c-378 -378 -556 -549 -563 -542
-7 7 -11 377 -13 1117 l-2 1107 565 -565 565 -565 -552 -552z m1016 88 c260
-257 291 -280 409 -302 51 -9 78 -9 128 0 115 23 147 47 404 302 l241 238 484
-484 485 -485 -1685 0 -1685 0 485 485 c267 267 487 485 489 485 3 0 113 -107
245 -239z"/>
</g>
</svg>
