<?xml version="1.0" standalone="no"?>
<!DOCTYPE svg PUBLIC "-//W3C//DTD SVG 20010904//EN"
 "http://www.w3.org/TR/2001/REC-SVG-20010904/DTD/svg10.dtd">
<svg version="1.0" xmlns="http://www.w3.org/2000/svg"
 width="613.000000pt" height="467.000000pt" viewBox="0 0 613.000000 467.000000"
 preserveAspectRatio="xMidYMid meet">

<g transform="translate(0.000000,467.000000) scale(0.100000,-0.100000)"
fill="#000000" stroke="none">
<path d="M2415 3433 c-36 -47 -37 -49 -31 -118 3 -38 2 -63 -1 -55 -4 10 -10
5 -18 -19 l-11 -34 -28 24 c-25 22 -26 28 -20 68 6 38 9 42 20 27 6 -9 14 -13
17 -9 7 11 -30 60 -38 51 -4 -3 -11 -25 -16 -47 -11 -52 0 -82 45 -116 32 -24
36 -32 36 -74 l0 -46 -29 50 c-31 54 -107 133 -117 122 -3 -3 -9 -27 -11 -52
-10 -88 45 -178 134 -216 24 -10 43 -25 43 -33 0 -8 3 -23 7 -33 4 -11 -13 -1
-41 25 -27 23 -53 42 -57 42 -14 0 -10 -39 7 -75 18 -38 46 -60 102 -78 22 -7
37 -19 37 -28 0 -9 6 -23 13 -31 6 -8 8 -19 4 -23 -4 -5 -2 -6 3 -2 6 3 16 -3
23 -14 14 -22 12 -24 -58 -39 -41 -9 -39 -9 26 -5 71 4 72 3 105 -32 25 -26
28 -34 14 -28 -60 23 -178 32 -204 16 -21 -13 64 -93 115 -109 54 -16 81 -15
137 4 45 15 48 15 77 -6 17 -12 29 -25 25 -28 -3 -3 9 -12 26 -19 17 -7 28
-17 24 -23 -3 -5 2 -10 12 -11 16 0 16 -1 -2 -8 -30 -12 -106 -20 -100 -11 3
4 -7 11 -20 14 -16 4 -23 11 -19 18 4 7 3 8 -5 4 -6 -4 -18 0 -27 8 -14 15
-14 16 2 16 10 0 15 3 11 6 -3 4 -18 3 -33 0 l-27 -7 23 -24 c50 -53 135 -70
207 -40 38 16 39 15 86 -27 18 -16 18 -17 -1 -27 -12 -6 -30 -7 -48 -1 l-29 8
35 3 c35 2 35 2 5 7 -27 4 -28 5 -10 13 15 7 13 8 -10 3 -48 -9 -52 -22 -11
-39 29 -12 45 -13 76 -5 45 12 62 6 99 -34 14 -14 31 -26 38 -26 26 0 25 -29
-2 -57 -34 -36 -47 -60 -37 -67 5 -3 23 15 40 39 17 25 36 45 41 45 6 0 18
-11 28 -25 42 -59 50 -68 56 -58 4 6 -11 31 -33 55 -29 34 -36 48 -28 56 7 7
16 12 21 12 5 0 27 16 48 35 33 30 43 34 71 28 28 -5 31 -4 21 8 -10 12 -9 18
5 30 51 42 49 41 81 25 59 -31 170 -11 210 38 16 19 6 36 -22 35 -12 0 -16 -3
-9 -6 10 -4 10 -8 1 -19 -6 -8 -16 -11 -22 -7 -6 3 -7 1 -3 -5 4 -7 2 -12 -4
-12 -6 0 -9 -4 -6 -9 4 -5 -4 -7 -16 -3 -16 4 -19 2 -13 -8 6 -10 4 -12 -7 -8
-9 4 -37 10 -63 13 -32 5 -43 10 -34 16 8 5 10 9 4 10 -5 0 6 8 26 17 19 9 35
21 36 27 0 5 11 18 25 28 24 18 27 18 77 1 81 -26 182 0 230 62 40 51 31 57
-67 52 -49 -3 -99 -11 -112 -18 -20 -10 -18 -6 11 29 22 26 39 39 49 35 8 -4
35 -8 60 -10 l45 -3 -45 11 c-56 14 -55 13 -38 37 8 12 18 18 23 13 5 -4 5 -2
2 4 -4 6 1 19 11 27 24 21 101 49 115 40 6 -4 7 -1 2 7 -5 8 -3 11 6 8 8 -3
22 -1 32 4 24 12 21 -3 -6 -27 -13 -11 -17 -16 -10 -11 27 18 21 0 -14 -42
-19 -23 -38 -40 -42 -37 -4 2 -8 -2 -8 -10 0 -22 52 19 87 70 31 45 54 95 43
95 -11 0 -144 -50 -174 -66 -22 -11 -30 -12 -27 -3 2 7 22 18 43 26 22 7 52
26 67 40 28 27 57 97 45 110 -8 7 -83 -44 -98 -66 -8 -13 -9 -11 -5 9 3 14 6
30 6 36 0 6 20 19 44 28 56 22 111 82 126 138 11 40 9 113 -4 126 -10 9 -94
-78 -119 -122 l-22 -38 -7 38 c-5 30 -3 41 10 49 9 6 29 23 45 38 27 26 29 32
25 82 -3 30 -8 58 -11 61 -9 9 -28 -8 -49 -44 -14 -22 -14 -29 -4 -29 9 0 12
7 8 16 -3 9 -2 13 3 9 4 -4 14 0 20 9 11 15 14 11 20 -27 7 -40 5 -46 -19 -67
-36 -31 -46 -29 -46 10 0 22 -3 28 -9 18 -14 -21 -19 17 -8 55 6 18 7 43 4 56
-8 29 -63 108 -76 108 -16 0 -23 -78 -12 -113 6 -19 25 -47 41 -62 33 -32 45
-81 13 -53 -28 24 -81 49 -87 40 -9 -14 11 -79 33 -110 12 -17 35 -42 51 -56
26 -21 30 -31 30 -75 0 -27 -4 -53 -10 -56 -5 -3 -10 0 -10 8 0 8 -9 25 -20
38 -18 23 -18 22 1 -18 24 -49 19 -93 -9 -71 -8 7 -28 31 -44 52 -15 21 -28
34 -28 29 0 -6 21 -36 47 -67 l47 -57 -28 -52 c-23 -45 -26 -47 -22 -21 7 45
-11 100 -44 137 -22 24 -31 29 -40 20 -23 -22 -23 -97 0 -188 l22 -88 -25 -24
-25 -25 4 28 c4 27 0 22 -13 -16 -4 -12 -7 -12 -19 4 -16 22 -19 4 -4 -24 8
-15 3 -24 -27 -49 -40 -33 -51 -34 -34 -3 6 12 11 31 10 44 -1 19 -2 18 -8 -7
-9 -37 -31 -73 -49 -80 -12 -4 -14 7 -10 60 3 50 9 69 25 85 l22 20 3 -28 c4
-22 6 -24 12 -9 5 9 5 29 2 43 -7 26 -7 26 -28 8 -32 -29 -48 -77 -48 -147 0
-56 -11 -87 -31 -87 -3 0 -4 23 -1 50 4 41 2 49 -10 45 -21 -8 -45 -54 -53
-102 -8 -48 -47 -85 -84 -78 -12 2 -19 1 -17 -4 3 -4 -4 -12 -15 -19 -16 -10
-19 -9 -19 4 0 8 5 25 11 36 8 16 8 19 -1 13 -8 -5 -11 -3 -8 6 3 8 11 13 17
11 7 -1 10 2 6 8 -8 13 13 40 31 40 11 0 13 -10 9 -42 -3 -30 -2 -39 5 -28 5
8 10 34 10 58 l0 43 -29 -16 c-50 -25 -71 -61 -71 -121 0 -49 -2 -54 -40 -84
l-40 -31 -44 32 c-44 31 -45 33 -39 74 7 52 -15 98 -60 125 -23 15 -33 16 -39
7 -8 -13 0 -72 14 -99 12 -24 5 -23 -37 5 -29 18 -35 28 -35 58 0 38 -39 108
-55 99 -12 -6 -12 -33 -2 -73 7 -26 6 -27 -13 -15 -17 11 -20 23 -20 76 0 64
-18 122 -47 154 -19 21 -33 9 -33 -27 1 -18 2 -18 13 -4 10 14 14 14 25 3 7
-7 17 -25 22 -39 13 -34 13 -115 0 -115 -14 0 -40 43 -55 92 -8 24 -14 34 -14
23 0 -11 6 -37 13 -57 8 -21 12 -38 10 -38 -2 0 -19 14 -38 31 -30 26 -34 33
-26 55 14 35 12 41 -4 18 -14 -18 -15 -18 -26 6 -10 25 -11 25 -6 1 l5 -24
-29 28 c-27 26 -28 28 -15 66 28 79 38 153 25 198 -6 23 -16 41 -22 39 -7 -3
-26 -21 -42 -42 -27 -32 -31 -45 -31 -98 l0 -60 -22 48 c-30 64 -29 75 8 110
53 50 92 154 58 154 -24 0 -71 -44 -93 -87 l-23 -46 -7 59 -7 58 44 38 c49 42
77 91 77 136 0 24 -4 29 -18 25 -10 -2 -30 -14 -43 -26 -14 -12 -20 -20 -14
-16 5 3 22 10 36 16 24 10 26 9 24 -10 -1 -12 -3 -27 -4 -34 -1 -17 -59 -81
-84 -94 -14 -8 -18 -8 -12 1 4 6 8 41 10 77 3 58 8 70 35 98 17 17 35 47 40
66 10 35 4 95 -11 104 -4 3 -24 -16 -44 -42z m45 -33 c0 -46 -36 -96 -59 -81
-18 12 -7 70 20 105 26 33 39 25 39 -24z m1274 -4 c29 -61 17 -99 -24 -74 -24
15 -38 59 -32 100 3 23 7 26 22 18 9 -5 25 -25 34 -44z m-2 -170 c20 -23 24
-51 7 -40 -8 5 -8 1 0 -14 6 -11 11 -29 11 -39 -1 -14 -6 -12 -26 12 -15 17
-23 24 -20 18 4 -7 5 -13 2 -13 -11 0 -56 88 -56 109 0 21 1 21 33 5 17 -9 40
-26 49 -38z m-1387 -128 c26 -57 32 -98 14 -98 -26 0 -81 44 -103 83 -27 46
-47 145 -27 133 6 -4 11 -2 11 4 0 23 82 -71 105 -122z m1561 43 c-14 -54 -51
-102 -98 -127 -36 -19 -38 -18 -38 13 0 38 34 103 82 158 38 44 41 45 54 27
11 -17 11 -28 0 -71z m-1396 -84 c0 -5 -5 -5 -12 -1 -7 4 -8 3 -4 -4 9 -15
-15 -60 -47 -90 -22 -21 -25 -21 -31 -6 -11 27 13 82 47 108 30 24 46 21 47
-7z m43 -155 c-1 -31 -11 -79 -21 -106 -17 -43 -21 -47 -29 -30 -40 76 -38
134 4 185 34 40 49 25 46 -49z m1106 -3 c9 -41 -4 -105 -24 -126 -13 -13 -16
-12 -21 4 -3 10 -9 25 -14 35 -16 30 -22 112 -10 142 l11 30 25 -26 c15 -14
29 -41 33 -59z m-1280 16 c39 -45 41 -66 4 -56 -32 8 -64 49 -68 85 -3 22 -1
24 15 16 9 -5 31 -25 49 -45z m1447 32 c-5 -39 -26 -68 -63 -83 -19 -9 -37
-13 -40 -10 -8 7 33 61 68 90 37 32 38 32 35 3z m-91 -307 c11 -5 14 -9 7 -9
-7 -1 -11 -5 -8 -10 7 -10 -19 -33 -61 -55 -41 -20 -146 -22 -162 -2 -9 11 -6
18 15 35 15 12 29 21 33 21 3 1 29 7 56 15 57 16 92 17 120 5z m-1174 -16 c26
-8 54 -23 64 -34 16 -17 15 -19 -6 -30 -13 -7 -47 -11 -85 -8 -65 4 -103 22
-130 64 -13 19 -11 20 49 22 34 1 83 -5 108 -14z m795 -88 c-4 -18 -13 -39
-21 -46 -13 -11 -15 -8 -15 17 0 26 29 77 39 68 2 -2 0 -20 -3 -39z m-546 8
c6 -14 10 -35 10 -47 0 -19 -2 -20 -15 -6 -8 8 -19 29 -24 47 -8 26 -7 32 5
32 8 0 19 -12 24 -26z m128 -36 c15 -15 16 -31 0 -22 -7 4 -8 3 -4 -5 4 -6 12
-9 17 -6 5 4 9 5 10 3 0 -2 2 -23 5 -47 l5 -43 -30 22 c-17 12 -31 24 -32 28
-11 77 -2 101 29 70z"/>
<path d="M2492 2850 c0 -19 2 -27 5 -17 2 9 2 25 0 35 -3 9 -5 1 -5 -18z"/>
<path d="M3641 2844 c0 -11 3 -14 6 -6 3 7 2 16 -1 19 -3 4 -6 -2 -5 -13z"/>
<path d="M2780 3331 c0 -6 11 -16 24 -20 13 -5 26 -17 30 -26 3 -9 6 -119 6
-244 0 -208 -2 -229 -18 -244 -10 -10 -24 -17 -30 -17 -7 0 -12 -4 -12 -10 0
-6 43 -10 110 -10 67 0 110 4 110 10 0 6 -6 10 -13 10 -34 0 -47 35 -47 123
l0 87 80 0 c85 0 131 -15 149 -48 5 -10 13 -43 17 -73 8 -62 26 -104 49 -113
34 -13 82 -6 100 14 18 20 17 20 -9 20 -31 0 -46 29 -46 93 0 49 -19 81 -61
103 l-30 15 33 22 c76 51 97 157 45 236 -44 67 -75 75 -294 79 -138 3 -193 1
-193 -7z m368 -47 c34 -24 52 -68 52 -128 0 -97 -55 -136 -192 -136 l-68 0 0
140 0 140 93 0 c68 0 99 -4 115 -16z"/>
<path d="M3620 3078 c1 -31 1 -32 13 -11 10 17 16 20 30 11 10 -5 21 -8 24 -5
4 5 -49 37 -62 37 -3 0 -5 -15 -5 -32z"/>
<path d="M2240 2875 c0 -3 9 -23 20 -45 36 -70 117 -150 117 -115 0 8 -4 12
-8 9 -9 -5 -81 77 -74 84 3 3 -3 14 -12 25 -17 20 -17 20 2 13 11 -4 29 -10
41 -12 12 -2 41 -11 65 -19 24 -9 39 -11 34 -6 -8 8 -168 71 -181 71 -2 0 -4
-2 -4 -5z"/>
<path d="M2595 2826 c-16 -24 -36 -83 -34 -101 0 -5 8 13 18 40 9 28 22 49 29
48 7 -2 12 6 12 17 0 26 -6 25 -25 -4z"/>
<path d="M3516 2834 c-3 -8 -6 -23 -6 -32 0 -13 3 -12 14 4 14 18 15 18 25 -9
6 -16 11 -36 12 -45 0 -10 3 -12 6 -5 6 17 -14 78 -31 92 -10 9 -15 8 -20 -5z"/>
<path d="M3658 2723 c7 -3 16 -2 19 1 4 3 -2 6 -13 5 -11 0 -14 -3 -6 -6z"/>
<path d="M2708 2453 c6 -2 18 -2 25 0 6 3 1 5 -13 5 -14 0 -19 -2 -12 -5z"/>
<path d="M3398 2453 c6 -2 18 -2 25 0 6 3 1 5 -13 5 -14 0 -19 -2 -12 -5z"/>
<path d="M3299 2412 c11 -8 9 -11 -10 -15 -21 -4 -20 -4 6 -6 l30 -2 -30 -14
c-41 -19 -13 -19 32 0 40 17 36 30 -12 40 -21 5 -26 4 -16 -3z"/>
<path d="M2932 2323 c-21 -8 -3 -23 26 -22 16 0 21 3 12 6 -8 3 -17 9 -20 13
-3 4 -11 5 -18 3z"/>
<path d="M3190 2320 c0 -5 -10 -11 -22 -13 -17 -3 -15 -5 9 -6 34 -1 52 13 28
23 -8 3 -15 1 -15 -4z"/>
<path d="M1225 1555 l0 -225 53 0 c49 0 52 1 42 19 -5 11 -10 54 -10 97 l0 76
65 -4 c82 -5 95 -17 102 -97 3 -33 11 -65 17 -70 6 -5 29 -12 51 -16 33 -6 38
-5 28 6 -7 7 -13 27 -13 45 0 57 -12 95 -40 122 l-28 27 30 31 c58 61 42 158
-33 196 -27 14 -59 18 -149 18 l-115 0 0 -225z m216 189 c24 -22 41 -83 33
-121 -3 -17 -16 -43 -29 -59 -19 -24 -29 -28 -76 -29 l-54 0 -3 104 c-1 58 0
111 3 119 7 20 101 9 126 -14z"/>
<path d="M1808 1569 c2 -151 0 -215 -9 -225 -10 -12 -2 -14 51 -14 53 0 61 2
51 14 -9 10 -11 74 -9 225 l3 211 -45 0 -45 0 3 -211z"/>
<path d="M2195 1766 c-54 -24 -80 -62 -80 -116 0 -76 40 -109 167 -135 86 -19
118 -43 118 -92 0 -27 -6 -37 -32 -53 -63 -38 -154 -21 -217 40 l-41 40 0 -34
c0 -31 4 -35 51 -55 105 -45 206 -36 266 24 27 27 33 41 33 77 0 76 -48 115
-169 139 -109 21 -152 81 -96 133 30 28 82 38 130 25 34 -10 35 -11 35 -59 0
-28 3 -50 8 -50 4 1 27 19 52 41 50 46 48 49 -34 74 -61 18 -151 19 -191 1z"/>
<path d="M2775 1764 c-84 -46 -129 -120 -129 -209 1 -97 59 -178 150 -209 60
-20 88 -20 148 0 172 59 198 299 44 401 -52 35 -164 44 -213 17z m153 -27 c65
-31 100 -169 68 -265 -63 -189 -265 -124 -266 86 0 148 92 232 198 179z"/>
<path d="M3286 1758 c-10 -38 -7 -40 22 -18 17 13 51 23 86 27 l57 6 -3 -222
-3 -221 53 0 c49 0 52 1 42 20 -7 12 -9 92 -8 217 l3 198 57 -2 c34 -1 67 -9
83 -19 27 -17 27 -17 23 7 l-3 24 -201 3 -202 2 -6 -22z"/>
<path d="M3895 1759 c-10 -29 -1 -33 29 -14 15 10 48 18 78 19 l53 1 0 -218 0
-217 53 0 c49 0 52 1 42 20 -7 12 -9 92 -8 217 l3 198 51 -1 c27 -1 64 -9 82
-18 32 -16 38 -12 26 18 -5 14 -33 16 -204 16 -192 0 -199 -1 -205 -21z"/>
<path d="M4619 1760 c-56 -30 -106 -94 -118 -151 -37 -172 122 -320 287 -265
176 59 206 300 50 403 -55 37 -164 44 -219 13z m159 -23 c37 -18 73 -89 79
-154 7 -80 -11 -139 -57 -185 -31 -31 -45 -38 -78 -38 -80 0 -143 86 -144 194
0 151 93 236 200 183z"/>
<path d="M1590 1100 c0 -33 4 -60 9 -60 12 0 17 43 12 88 -6 55 -21 35 -21
-28z"/>
<path d="M1657 1141 c3 -11 0 -28 -7 -36 -9 -10 -9 -15 -1 -15 6 0 11 -9 11
-19 0 -11 4 -22 9 -26 14 -8 8 92 -6 106 -9 9 -11 7 -6 -10z"/>
<path d="M1750 1100 c0 -33 4 -60 10 -60 6 0 10 27 10 60 0 33 -4 60 -10 60
-6 0 -10 -27 -10 -60z"/>
<path d="M1960 1144 c0 -8 5 -12 10 -9 6 4 8 11 5 16 -9 14 -15 11 -15 -7z"/>
<path d="M2090 1100 c0 -38 4 -59 10 -55 6 3 10 28 10 55 0 27 -4 52 -10 55
-6 4 -10 -17 -10 -55z"/>
<path d="M2370 1112 c0 -49 13 -72 40 -72 12 1 12 2 -2 11 -13 7 -18 23 -18
59 0 28 -4 50 -10 50 -5 0 -10 -22 -10 -48z"/>
<path d="M2522 1100 c0 -46 2 -58 8 -39 4 14 4 43 0 65 -7 35 -8 32 -8 -26z"/>
<path d="M2577 1108 c4 -73 21 -84 19 -12 0 31 -6 59 -11 61 -6 2 -9 -18 -8
-49z"/>
<path d="M2726 1130 c10 -60 22 -90 35 -90 14 0 10 21 -17 75 -23 47 -24 48
-18 15z"/>
<path d="M2850 1151 c0 -5 3 -11 8 -13 4 -1 23 -23 42 -47 19 -24 36 -39 38
-33 2 7 -13 32 -33 57 -36 43 -55 56 -55 36z"/>
<path d="M3063 1100 c0 -36 2 -50 4 -32 2 17 2 47 0 65 -2 17 -4 3 -4 -33z"/>
<path d="M3180 1100 c0 -62 14 -82 22 -30 6 39 -2 90 -13 90 -5 0 -9 -27 -9
-60z"/>
<path d="M3454 1134 c-18 -27 -11 -73 13 -81 9 -3 9 3 1 25 -10 25 -9 35 5 56
10 14 13 26 7 26 -5 0 -17 -12 -26 -26z"/>
<path d="M3520 1150 c0 -5 5 -10 11 -10 5 0 7 5 4 10 -3 6 -8 10 -11 10 -2 0
-4 -4 -4 -10z"/>
<path d="M3624 1135 c-20 -31 -12 -70 17 -86 21 -11 21 -10 5 12 -21 30 -20
58 1 81 9 10 11 18 5 18 -6 0 -19 -11 -28 -25z"/>
<path d="M3700 1141 c7 -13 10 -39 7 -58 -5 -29 -4 -33 8 -23 22 18 18 64 -6
86 -22 19 -22 19 -9 -5z"/>
<path d="M3800 1112 c0 -49 13 -72 40 -72 12 1 12 2 -2 11 -13 7 -18 23 -18
59 0 28 -4 50 -10 50 -5 0 -10 -22 -10 -48z"/>
<path d="M3950 1100 c0 -36 4 -59 9 -55 12 7 12 103 0 111 -5 3 -9 -22 -9 -56z"/>
<path d="M4007 1115 c1 -24 6 -52 11 -62 7 -12 10 -1 8 42 0 32 -5 60 -11 62
-6 2 -9 -16 -8 -42z"/>
<path d="M4110 1154 c0 -14 45 -104 52 -104 12 0 10 6 -13 61 -12 27 -25 49
-30 49 -5 0 -9 -3 -9 -6z"/>
<path d="M4207 1103 c8 -78 13 -80 13 -5 0 34 -4 62 -9 62 -6 0 -7 -25 -4 -57z"/>
<path d="M4300 1100 c0 -33 4 -60 10 -60 6 0 10 27 10 60 0 33 -4 60 -10 60
-6 0 -10 -27 -10 -60z"/>
<path d="M4490 1101 c0 -34 4 -61 10 -61 6 0 10 24 10 54 0 30 -4 58 -10 61
-6 4 -10 -17 -10 -54z"/>
<path d="M1897 1143 c-12 -20 5 -44 35 -50 17 -3 33 -15 38 -27 8 -19 9 -19 9
7 1 23 -4 29 -30 34 -18 3 -34 14 -38 26 -5 12 -10 16 -14 10z"/>
<path d="M2236 1128 c15 -51 34 -88 43 -88 6 0 2 22 -9 50 -11 28 -20 53 -20
55 0 3 -5 5 -11 5 -6 0 -8 -9 -3 -22z"/>
<path d="M3528 1075 c-4 -17 -1 -25 8 -25 8 0 14 11 14 25 0 14 -4 25 -9 25
-5 0 -11 -11 -13 -25z"/>
</g>
</svg>
