<?xml version="1.0" standalone="no"?>
<!DOCTYPE svg PUBLIC "-//W3C//DTD SVG 20010904//EN"
 "http://www.w3.org/TR/2001/REC-SVG-20010904/DTD/svg10.dtd">
<svg version="1.0" xmlns="http://www.w3.org/2000/svg"
 width="920.000000pt" height="512.000000pt" viewBox="0 0 920.000000 512.000000"
 preserveAspectRatio="xMidYMid meet">

<g transform="translate(0.000000,512.000000) scale(0.100000,-0.100000)"
fill="#000000" stroke="none">
<path d="M3480 5084 c-45 -20 -87 -59 -111 -106 -19 -37 -19 -88 -17 -2282 l3
-2244 30 -44 c17 -23 51 -54 75 -68 l45 -25 1175 -3 c839 -2 1190 1 1229 9 77
16 144 83 160 160 8 39 11 665 9 2259 l-3 2205 -28 48 c-15 26 -47 60 -69 75
l-42 27 -1210 2 c-1066 2 -1215 1 -1246 -13z m2338 -422 c10 -7 12 -398 10
-1923 l-3 -1914 -1115 0 -1115 0 -3 1909 c-1 1403 1 1912 9 1922 10 12 197 14
1108 14 603 0 1102 -4 1109 -8z m-815 -3956 c17 -18 12 -177 -6 -188 -21 -14
-561 -10 -575 4 -16 16 -16 170 0 186 19 19 562 17 581 -2z"/>
</g>
</svg>
